<svg xmlns="http://www.w3.org/2000/svg" xmlns:xlink="http://www.w3.org/1999/xlink" viewBox="0 0 1297 579"><defs><style>.cls-1{fill:url(#linear-gradient);}</style><linearGradient id="linear-gradient" x1="994.35" y1="-439.61" x2="528.36" y2="525.19" gradientUnits="userSpaceOnUse"><stop offset="0" stop-color="#161f40"/><stop offset="0.99" stop-color="#142142" stop-opacity="0.01"/><stop offset="1" stop-color="#142142" stop-opacity="0"/></linearGradient></defs><title>Desktop</title><g id="Layer_2" data-name="Layer 2"><g id="Layer_1-2" data-name="Layer 1"><polygon class="cls-1" points="0 520.36 303.43 1.31 305.13 19.81 306.93 24.2 323.44 0 325.3 27.52 335.79 10.46 339.66 32.77 351.1 17.46 357.4 31.85 364.42 20.31 369.33 31.14 380.79 16 384.73 34.4 394.08 23.02 398.34 34.19 406.88 24.24 408.71 33.79 419.88 15.7 425.16 31.96 437.96 15.09 442.43 24.85 451.17 15.7 459.7 25.05 471.69 10.01 484.16 34.98 500.22 15.83 503.96 29.91 515.19 17.59 519.81 20.89 528.17 10.33 532.35 29.47 544.23 10.33 546.87 23.31 556.34 9.89 561.4 32.99 583.18 0.43 591.91 20.79 604.56 5.19 609.2 20.37 620.38 0.34 619.99 26.37 630.56 14.29 632.26 28.27 645.28 15.27 650.24 20.24 657.39 10.36 663.54 32.62 676.71 15.36 680.8 29.59 691.71 14.98 694.32 25.5 705.35 1.84 709.88 20.45 719.66 5.85 724.8 12.08 708.32 25.6 733.21 10.43 738.32 34.17 753.15 13.89 756.61 24.06 765.24 12.88 772.18 24.96 778.89 14.11 792.46 25.03 800.96 12.88 815.79 30.98 834.02 11.79 836.25 19.65 839.53 22.93 852.77 10.47 860.38 16.24 859.59 21.36 866.15 14.67 872.71 15.32 874.54 29.75 889.49 14.27 892.77 22.54 900.38 14.93 905.23 18.21 906.54 23.59 914.54 13.88 919.52 21.49 929.88 27.39 943.65 10.34 951.89 25.43 960.94 10.67 967.02 22.52 976.59 10.63 975.15 31.27 988.21 15.49 991.37 31.34 1002.93 16.01 1005.3 26.76 1008.1 33.61 1022.2 15.87 1024.83 33.49 1039.89 16.79 1040.49 36.03 1058.39 16.64 1064.21 33.34 1080.77 15.14 1083.75 31.85 1096.88 16.79 1098.54 22.1 1108.38 10.41 1112.1 36.08 1124.11 19.05 1126.28 35.58 1138.58 15.8 1142.22 35.39 1154.62 15.31 1159.05 34.99 1171.16 15.31 1173.42 33.12 1183.85 15.8 1188.09 34.11 1197.73 16.49 1203.44 24.07 1212 14.03 1216.22 20.2 1223.94 10.42 1227.77 35.55 1240.66 16.27 1243.67 30.55 1252.68 15.89 1255.42 30.84 1260 31.17 1276.35 13.77 1276.9 24.78 1289.84 15.29 1297 25.33 1290.12 33.18 1295.76 35.11 989.18 579 0 520.36"/></g></g></svg>