<svg xmlns="http://www.w3.org/2000/svg" xmlns:xlink="http://www.w3.org/1999/xlink" viewBox="0 0 815 565"><defs><style>.cls-1{fill:url(#linear-gradient);}</style><linearGradient id="linear-gradient" x1="681.64" y1="-291.86" x2="312.27" y2="472.91" gradientUnits="userSpaceOnUse"><stop offset="0" stop-color="#161f40"/><stop offset="0.99" stop-color="#142142" stop-opacity="0.01"/><stop offset="1" stop-color="#142142" stop-opacity="0"/></linearGradient></defs><title>Tab</title><g id="Layer_2" data-name="Layer 2"><g id="Layer_1-2" data-name="Layer 1"><polygon class="cls-1" points="509.56 565 0 520.54 303.54 1.31 305.23 19.78 307.04 24.16 323.52 0 325.37 27.47 335.85 10.44 339.71 32.71 351.12 17.43 357.42 31.8 364.42 20.28 369.33 31.09 380.77 15.97 384.7 34.34 394.03 22.98 398.29 34.13 406.81 24.2 408.63 33.73 419.79 15.68 425.06 31.9 437.84 15.07 442.3 24.8 451.02 15.68 459.54 25.01 471.51 10 483.95 34.91 499.99 15.8 503.72 29.86 514.93 17.56 519.54 20.86 527.89 10.31 532.06 29.42 543.92 10.31 546.56 23.27 556 9.87 561.05 32.94 582.8 0.43 591.52 20.75 604.14 5.18 608.77 20.33 619.93 0.34 619.55 26.33 630.1 14.27 631.79 28.22 644.79 15.25 649.74 20.2 656.88 10.35 663.02 32.56 676.16 15.34 680.25 29.54 691.14 14.95 693.75 25.46 704.76 1.84 709.28 20.41 719.04 5.84 724.17 12.06 707.72 25.55 732.56 10.41 737.66 34.11 752.48 13.87 755.93 24.02 764.54 12.86 771.47 24.92 778.17 14.08 791.71 24.99 800.2 12.86 815 30.93 509.56 565"/></g></g></svg>